<svg width="24" height="24" viewBox="0 0 24 24"
    xmlns="http://www.w3.org/2000/svg" fill="currentColor">
    <path d="M19.14 12.94c.04-.3.06-.61.06-.94s-.02-.64-.06-.94l2.03-1.58a.5.5 0 0 0 .12-.63l-1.92-3.32a.5.5 0 0 0-.61-.22l-2.39.96a7.02 7.02 0 0 0-1.62-.94L14.5 2.5a.5.5 0 0 0-.5-.5h-4a.5.5 0 0 0-.5.5l-.26 2.33c-.6.24-1.15.55-1.65.94l-2.39-.96a.5.5 0 0 0-.61.22L2.67 8.85a.5.5 0 0 0 .12.63l2.03 1.58c-.04.3-.06.61-.06.94s.02.64.06.94l-2.03 1.58a.5.5 0 0 0-.12.63l1.92 3.32c.14.24.43.34.68.22l2.39-.96c.5.39 1.05.7 1.65.94l.26 2.33c.03.26.24.46.5.46h4c.26 0 .47-.2.5-.46l.26-2.33c.6-.24 1.15-.55 1.62-.94l2.39.96c.25.12.54.02.68-.22l1.92-3.32a.5.5 0 0 0-.12-.63l-2.03-1.58ZM12 15.5A3.5 3.5 0 1 1 12 8.5a3.5 3.5 0 0 1 0 7Z"/>
</svg>
